<svg xmlns="http://www.w3.org/2000/svg" viewBox="0 0 115.24 44.5"><defs><style>.cls-1{fill:#ffd5a3;}.cls-2{fill:#fff;}.cls-3{fill:#ed664b;}</style></defs><g id="Layer_2" data-name="Layer 2"><g id="hands"><path class="cls-1" d="M32.93,13c2.75.28,5.18-1.41,5.42-3.77h0c.24-2.36-1.8-4.5-4.55-4.78L7.59,1.77c-2.75-.28-5.18,1.4-5.42,3.76h0C1.92,7.89,4,10,6.72,10.32Z"/><path class="cls-1" d="M35,22.92c3.08-.11,5.51-2,5.43-4.3h0c-.08-2.27-2.65-4-5.72-3.9l-29.26,1c-3.08.11-5.51,2-5.43,4.3H0c.08,2.27,2.64,4,5.72,3.91Z"/><path class="cls-1" d="M39.92,33.28c1.28,0,2.31-2.08,2.32-4.65h0c0-2.56-1-4.65-2.31-4.65H27.83c-1.27,0-2.31,2.08-2.31,4.64h0c0,2.57,1,4.65,2.3,4.65Z"/><path class="cls-1" d="M41,42.42c1.17,0,2.12-1.82,2.12-4.08h0c0-2.26-.94-4.1-2.11-4.1H29.89c-1.16,0-2.11,1.83-2.11,4.09h0c0,2.26.94,4.09,2.1,4.09Z"/><polygon class="cls-1" points="31.67 4.69 51.75 4.66 52.25 42.37 31.67 42.38 31.67 4.69"/><path class="cls-1" d="M47.18,42.33s10.06.33,12.61-.82c3.25-1.46,2.87-3.95,3.29-4.26s13.32,0,13.32,0l.79-30-13.4.09A11.44,11.44,0,0,0,56.2,1.23C53.47.53,44.13,0,44.13,0s-11.8,5.08-12,5.82L49.06,5,46.73,21.31Z"/><rect class="cls-2" x="67.81" y="5.12" width="7.84" height="35.15"/><rect class="cls-3" x="75.68" y="1.19" width="39.56" height="43.31"/></g></g></svg>