<svg xmlns="http://www.w3.org/2000/svg" viewBox="0 0 121.43 53.27"><defs><style>.cls-1{fill:#ffd5a3;}.cls-2{fill:#fff;}.cls-3{fill:#ed664b;}</style></defs><g id="Layer_2" data-name="Layer 2"><g id="hands"><path class="cls-1" d="M36.69,22.3C39.61,22.3,42,20.38,42,18h0c0-2.37-2.36-4.3-5.29-4.3l-27.82,0C6,13.67,3.58,15.59,3.58,18h0c0,2.37,2.36,4.3,5.29,4.3Z"/><path class="cls-1" d="M34.85,32.53c3.08,0,5.58-1.84,5.58-4.1h0c0-2.27-2.5-4.11-5.57-4.11l-29.28,0C2.5,24.28,0,26.11,0,28.38H0c0,2.27,2.49,4.11,5.57,4.11Z"/><path class="cls-1" d="M36.72,42.54c2.92,0,5.28-1.78,5.28-4h0c0-2.2-2.36-4-5.27-4L9,34.54c-2.91,0-5.28,1.78-5.28,4h0c0,2.2,2.36,4,5.27,4Z"/><path class="cls-1" d="M39.44,52.28C42,52.28,44,50.59,44,48.5h0c0-2.09-2-3.79-4.57-3.79l-24.08,0c-2.52,0-4.58,1.69-4.58,3.78h0c0,2.09,2,3.79,4.57,3.79Z"/><path class="cls-1" d="M48.2,14.84c1.63.43,3.83-1.12,4.5-3.68L50.39,9.55c.67-2.56,4.88-4,4.88-4S37.07,1.11,33.18.08C31.4-.4,29.69,1.38,29,3.94h0c-.68,2.56.67,4,2.57,4.7C36.37,10.38,48.2,14.84,48.2,14.84Z"/><polygon class="cls-1" points="32.59 13.7 52.67 13.67 53.17 52.28 32.59 52.29 32.59 13.7"/><path class="cls-1" d="M48.11,52.29s9.51.27,12.06-.88C63.42,50,63.58,46.57,64,46.26s13.32,0,13.32,0l.79-30-13.39.1s.82-8.6-4.89-10.08C54.29,4.89,49.77,4.09,44,2.8L50,14,47.64,30.32Z"/><rect class="cls-2" x="68.85" y="13.89" width="7.84" height="35.15"/><rect class="cls-3" x="76.72" y="9.97" width="44.71" height="43.3"/></g></g></svg>