<svg xmlns="http://www.w3.org/2000/svg" viewBox="0 0 105.34 45.48"><defs><style>.cls-1{fill:#ffd5a3;}.cls-2{fill:#fff;}.cls-3{fill:#ed664b;}</style></defs><g id="Layer_2" data-name="Layer 2"><g id="hands"><path class="cls-1" d="M20.72,35c1.79,0,3.24-2.1,3.25-4.7h0c0-2.6-1.45-4.71-3.23-4.71l-17,0c-1.79,0-3.24,2.1-3.25,4.7h0C.48,32.91,1.93,35,3.72,35Z"/><path class="cls-1" d="M20.24,24.89c1.79,0,3.24-2.11,3.24-4.7h0c0-2.61-1.44-4.71-3.23-4.71l-17,0c-1.78,0-3.24,2.1-3.24,4.7H0c0,2.6,1.44,4.71,3.23,4.71Z"/><path class="cls-1" d="M20.73,14.73c1.78,0,3.23-1.94,3.24-4.34h0C24,8,22.52,6,20.74,6l-17,0C1.94,6,.49,8,.49,10.36h0c0,2.4,1.44,4.35,3.23,4.35Z"/><path class="cls-1" d="M17.29,43.78c1.17,0,2.12-1.82,2.12-4.08h0c0-2.26-.94-4.09-2.11-4.09l-11.11,0c-1.16,0-2.11,1.83-2.11,4.09h0c0,2.26.94,4.09,2.1,4.09Z"/><polygon class="cls-1" points="7.97 6.05 28.05 6.02 28.55 43.73 7.97 43.74 7.97 6.05"/><path class="cls-1" d="M23.48,43.69s10.06.33,12.61-.82a4.92,4.92,0,0,0,3-4.69l13.54-.08L53.49,10,40.1,9.83s-.28-6.55-6-8C31.38,1.1,21.69,0,21.69,0s-8.21,6.2-8.42,6.93l12.09-.62L23,22.68Z"/><rect class="cls-2" x="44.76" y="6.1" width="7.84" height="35.15"/><rect class="cls-3" x="52.62" y="2.17" width="52.71" height="43.31"/></g></g></svg>