<svg xmlns="http://www.w3.org/2000/svg" viewBox="0 0 121.43 53.27"><defs><style>.cls-1{fill:#ffd5a3;}.cls-2{fill:#fff;}.cls-3{fill:#3c3c3b;}</style></defs><g id="Layer_2" data-name="Layer 2"><g id="hands"><path class="cls-1" d="M84.74,22.3c-2.92,0-5.29-1.92-5.3-4.3h0c0-2.37,2.37-4.3,5.29-4.3l27.82,0c2.93,0,5.3,1.92,5.3,4.29h0c0,2.37-2.36,4.3-5.29,4.3Z"/><path class="cls-1" d="M86.58,32.53c-3.08,0-5.58-1.84-5.58-4.1h0c0-2.27,2.49-4.11,5.57-4.11l29.28,0c3.08,0,5.58,1.82,5.58,4.09h0c0,2.27-2.49,4.11-5.57,4.11Z"/><path class="cls-1" d="M84.71,42.54c-2.92,0-5.28-1.78-5.29-4h0c0-2.2,2.37-4,5.28-4l27.73,0c2.91,0,5.28,1.78,5.28,4h0c0,2.2-2.36,4-5.27,4Z"/><path class="cls-1" d="M82,52.28c-2.53,0-4.59-1.69-4.59-3.78h0c0-2.09,2-3.79,4.58-3.79l24.07,0c2.53,0,4.59,1.69,4.59,3.78h0c0,2.09-2,3.79-4.58,3.79Z"/><path class="cls-1" d="M73.23,14.84c-1.63.43-3.83-1.12-4.5-3.68L71,9.55c-.67-2.56-4.88-4-4.88-4S84.35,1.11,88.25.08C90-.4,91.74,1.38,92.41,3.94h0c.67,2.56-.68,4-2.57,4.7C85.06,10.38,73.23,14.84,73.23,14.84Z"/><polygon class="cls-1" points="88.84 13.7 68.76 13.67 68.26 52.28 88.84 52.29 88.84 13.7"/><path class="cls-1" d="M73.32,52.29s-9.51.27-12.06-.88C58,50,57.85,46.57,57.44,46.26s-13.32,0-13.32,0l-.79-30,13.39.1s-.83-8.6,4.89-10.08c5.53-1.43,10-2.23,15.79-3.52L71.46,14l2.32,16.36Z"/><rect class="cls-2" x="44.73" y="13.89" width="7.84" height="35.15"/><rect class="cls-3" y="9.97" width="44.71" height="43.3"/></g></g></svg>