<svg xmlns="http://www.w3.org/2000/svg" viewBox="0 0 105.34 45.48"><defs><style>.cls-1{fill:#ffd5a3;}.cls-2{fill:#fff;}.cls-3{fill:#3c3c3b;}</style></defs><g id="Layer_2" data-name="Layer 2"><g id="hands"><path class="cls-1" d="M84.61,35c-1.79,0-3.24-2.1-3.24-4.7h0c0-2.6,1.44-4.71,3.23-4.71l17,0c1.79,0,3.24,2.1,3.24,4.7h0c0,2.6-1.44,4.71-3.23,4.71Z"/><path class="cls-1" d="M85.1,24.89c-1.79,0-3.24-2.11-3.25-4.7h0c0-2.61,1.45-4.71,3.23-4.71l17,0c1.79,0,3.24,2.1,3.25,4.7h0c0,2.6-1.45,4.71-3.24,4.71Z"/><path class="cls-1" d="M84.61,14.73c-1.79,0-3.24-1.94-3.24-4.34h0C81.37,8,82.81,6,84.6,6l17,0c1.79,0,3.24,1.94,3.24,4.34h0c0,2.4-1.44,4.35-3.23,4.35Z"/><path class="cls-1" d="M88,43.78c-1.16,0-2.11-1.82-2.12-4.08h0c0-2.26,1-4.09,2.12-4.09l11.1,0c1.17,0,2.12,1.83,2.12,4.09h0c0,2.26-.94,4.09-2.11,4.09Z"/><polygon class="cls-1" points="97.37 6.05 77.28 6.02 76.78 43.73 97.37 43.74 97.37 6.05"/><path class="cls-1" d="M81.86,43.69S71.8,44,69.25,42.87a4.92,4.92,0,0,1-3-4.69L52.71,38.1,51.85,10l13.39-.13s.28-6.55,6-8C74,1.1,83.64,0,83.64,0s8.21,6.2,8.43,6.93L80,6.31l2.33,16.37Z"/><rect class="cls-2" x="52.74" y="6.1" width="7.84" height="35.15"/><rect class="cls-3" y="2.17" width="52.71" height="43.31"/></g></g></svg>