<svg xmlns="http://www.w3.org/2000/svg" viewBox="0 0 115.24 44.5"><defs><style>.cls-1{fill:#ffd5a3;}.cls-2{fill:#fff;}.cls-3{fill:#3c3c3b;}</style></defs><g id="Layer_2" data-name="Layer 2"><g id="hands"><path class="cls-1" d="M82.31,13c-2.75.28-5.18-1.41-5.42-3.77h0c-.24-2.36,1.8-4.5,4.55-4.78l26.21-2.67c2.75-.28,5.18,1.4,5.42,3.76h0c.25,2.36-1.79,4.51-4.55,4.79Z"/><path class="cls-1" d="M80.26,22.92c-3.08-.11-5.51-2-5.43-4.3h0c.08-2.27,2.65-4,5.72-3.9l29.26,1c3.08.11,5.51,2,5.43,4.3h0c-.08,2.27-2.64,4-5.72,3.91Z"/><path class="cls-1" d="M75.32,33.28C74,33.28,73,31.2,73,28.63h0C73,26.07,74,24,75.31,24h12.1c1.27,0,2.31,2.08,2.31,4.64h0c0,2.57-1,4.65-2.3,4.65Z"/><path class="cls-1" d="M74.25,42.42c-1.17,0-2.12-1.82-2.12-4.08h0c0-2.26.94-4.1,2.11-4.1H85.35c1.16,0,2.11,1.83,2.11,4.09h0c0,2.26-.94,4.09-2.1,4.09Z"/><polygon class="cls-1" points="83.57 4.69 63.49 4.66 62.99 42.37 83.57 42.38 83.57 4.69"/><path class="cls-1" d="M68.06,42.33s-10.06.33-12.61-.82c-3.25-1.46-2.87-3.95-3.29-4.26s-13.32,0-13.32,0l-.79-30,13.4.09A11.44,11.44,0,0,1,59,1.23C61.77.53,71.11,0,71.11,0s11.8,5.08,12,5.82L66.18,5l2.33,16.36Z"/><rect class="cls-2" x="39.59" y="5.12" width="7.84" height="35.15"/><rect class="cls-3" y="1.19" width="39.56" height="43.31"/></g></g></svg>